<svg width="64" height="64" viewBox="0 0 64 64" fill="none" xmlns="http://www.w3.org/2000/svg">
<g id="portfolio_favicon" clip-path="url(#clip0_3_2)">
<path id="bg" d="M54.329 10.612C58.1821 10.6084 60.591 14.7809 58.6614 18.116L36.6383 56.1801C34.7117 59.5099 29.9038 59.5077 27.9803 56.1762L6.02737 18.1525C4.10389 14.821 6.50594 10.6561 10.3529 10.6525L54.329 10.612Z" fill="#6F828A"/>
<g id="account_circle">
<path id="icon" d="M24.5773 32.9224C25.5689 32.1641 26.6773 31.5662 27.9023 31.1287C29.1273 30.6912 30.4106 30.4724 31.7523 30.4724C33.0939 30.4724 34.3773 30.6912 35.6023 31.1287C36.8273 31.5662 37.9356 32.1641 38.9273 32.9224C39.6078 32.1252 40.1377 31.221 40.5169 30.2099C40.896 29.1988 41.0856 28.1196 41.0856 26.9724C41.0856 24.3863 40.1766 22.1842 38.3585 20.3662C36.5405 18.5481 34.3384 17.6391 31.7523 17.6391C29.1662 17.6391 26.9641 18.5481 25.146 20.3662C23.328 22.1842 22.4189 24.3863 22.4189 26.9724C22.4189 28.1196 22.6085 29.1988 22.9877 30.2099C23.3669 31.221 23.8967 32.1252 24.5773 32.9224ZM31.7523 28.1391C30.605 28.1391 29.6377 27.7453 28.8502 26.9578C28.0627 26.1703 27.6689 25.203 27.6689 24.0558C27.6689 22.9085 28.0627 21.9412 28.8502 21.1537C29.6377 20.3662 30.605 19.9724 31.7523 19.9724C32.8995 19.9724 33.8669 20.3662 34.6544 21.1537C35.4419 21.9412 35.8356 22.9085 35.8356 24.0558C35.8356 25.203 35.4419 26.1703 34.6544 26.9578C33.8669 27.7453 32.8995 28.1391 31.7523 28.1391ZM31.7523 38.6391C30.1384 38.6391 28.6217 38.3328 27.2023 37.7203C25.7828 37.1078 24.5481 36.2766 23.4981 35.2266C22.4481 34.1766 21.6169 32.9419 21.0044 31.5224C20.3919 30.103 20.0856 28.5863 20.0856 26.9724C20.0856 25.3585 20.3919 23.8419 21.0044 22.4224C21.6169 21.003 22.4481 19.7683 23.4981 18.7183C24.5481 17.6683 25.7828 16.837 27.2023 16.2245C28.6217 15.612 30.1384 15.3058 31.7523 15.3058C33.3662 15.3058 34.8828 15.612 36.3023 16.2245C37.7217 16.837 38.9564 17.6683 40.0064 18.7183C41.0564 19.7683 41.8877 21.003 42.5002 22.4224C43.1127 23.8419 43.4189 25.3585 43.4189 26.9724C43.4189 28.5863 43.1127 30.103 42.5002 31.5224C41.8877 32.9419 41.0564 34.1766 40.0064 35.2266C38.9564 36.2766 37.7217 37.1078 36.3023 37.7203C34.8828 38.3328 33.3662 38.6391 31.7523 38.6391Z" fill="#FFA14A"/>
</g>
</g>
<defs>
<clipPath id="clip0_3_2">
<rect width="64" height="64" fill="white"/>
</clipPath>
</defs>
</svg>
